<svg width="235" height="235" viewBox="0 0 235 235" fill="none" xmlns="http://www.w3.org/2000/svg">
<path d="M117.5 235C115.552 235 113.684 234.226 112.307 232.849C110.93 231.472 110.156 229.604 110.156 227.656V208.665L100.668 218.168C99.2892 219.545 97.4197 220.318 95.4709 220.317C93.5221 220.315 91.6537 219.54 90.2767 218.161C88.8997 216.782 88.1269 214.912 88.1283 212.964C88.1296 211.015 88.9051 209.146 90.2841 207.769L110.156 187.897V171.947L100.668 181.449C99.9853 182.131 99.1749 182.672 98.2832 183.04C97.3914 183.409 96.4358 183.599 95.4709 183.598C93.5221 183.596 91.6537 182.821 90.2767 181.442C88.8997 180.063 88.1269 178.194 88.1283 176.245C88.1296 174.296 88.9051 172.428 90.2841 171.051L110.156 151.178V130.219L92.0025 140.692L84.7322 167.863C84.4814 168.795 84.0497 169.668 83.4615 170.433C82.8733 171.198 82.1403 171.839 81.3043 172.32C80.4682 172.802 79.5455 173.114 78.5889 173.239C77.6322 173.364 76.6604 173.299 75.7288 173.048C74.7971 172.797 73.924 172.366 73.1593 171.777C72.3946 171.189 71.7532 170.456 71.2717 169.62C70.7903 168.784 70.4782 167.861 70.3534 166.905C70.2285 165.948 70.2933 164.976 70.5441 164.045L74.025 151.09L60.2187 159.051L52.9338 186.223C52.4274 188.104 51.1943 189.708 49.5058 190.68C47.8173 191.652 45.8118 191.914 43.9303 191.407C42.0488 190.901 40.4456 189.668 39.4733 187.98C38.501 186.291 38.2392 184.286 38.7456 182.404L42.2266 169.45L25.7766 178.938C24.0907 179.896 22.0942 180.149 20.2227 179.641C18.3512 179.133 16.7567 177.905 15.787 176.226C14.8174 174.546 14.5514 172.552 15.0471 170.677C15.5427 168.802 16.7599 167.199 18.4328 166.218L34.8828 156.73L21.8991 153.249C20.9675 152.999 20.0944 152.567 19.3296 151.979C18.5649 151.391 17.9235 150.657 17.442 149.821C16.9606 148.985 16.6485 148.063 16.5237 147.106C16.3988 146.149 16.4636 145.178 16.7144 144.246C16.9651 143.314 17.3969 142.441 17.9851 141.677C18.5732 140.912 19.3063 140.27 20.1423 139.789C20.9784 139.307 21.901 138.995 22.8577 138.871C23.8143 138.746 24.7862 138.811 25.7178 139.061L52.8603 146.332L66.6666 138.371L53.7122 134.89C52.7664 134.654 51.877 134.233 51.0958 133.65C50.3146 133.067 49.6573 132.334 49.1622 131.494C48.6671 130.655 48.3442 129.725 48.2121 128.759C48.0801 127.793 48.1416 126.811 48.3931 125.869C48.6446 124.928 49.0811 124.045 49.6771 123.274C50.2731 122.503 51.0166 121.858 51.8644 121.377C52.7122 120.896 53.6473 120.588 54.6151 120.473C55.583 120.357 56.5642 120.435 57.5016 120.702L84.6734 127.972L102.813 117.5L84.6587 107.028L57.5016 114.298C56.5642 114.565 55.583 114.643 54.6151 114.527C53.6473 114.412 52.7122 114.104 51.8644 113.623C51.0166 113.142 50.2731 112.497 49.6771 111.726C49.0811 110.955 48.6446 110.072 48.3931 109.131C48.1416 108.189 48.0801 107.207 48.2121 106.241C48.3442 105.275 48.6671 104.345 49.1622 103.506C49.6573 102.666 50.3146 101.933 51.0958 101.35C51.877 100.767 52.7664 100.346 53.7122 100.11L66.6812 96.6291L52.875 88.6684L25.7031 95.9388C23.8339 96.4046 21.8565 96.1174 20.1971 95.1389C18.5377 94.1604 17.3292 92.5691 16.8321 90.7079C16.335 88.8468 16.5892 86.8648 17.5397 85.1893C18.4903 83.5137 20.0612 82.2788 21.9137 81.7506L34.8828 78.2697L18.4328 68.7816C17.5909 68.3029 16.852 67.6624 16.2586 66.897C15.6652 66.1315 15.2291 65.2563 14.9753 64.3216C14.7215 63.387 14.6552 62.4114 14.78 61.451C14.9048 60.4905 15.2184 59.5643 15.7027 58.7256C16.1869 57.8868 16.8323 57.1522 17.6017 56.5639C18.371 55.9756 19.2491 55.5453 20.1854 55.2977C21.1217 55.0502 22.0978 54.9903 23.0574 55.1215C24.0169 55.2527 24.9411 55.5724 25.7766 56.0622L42.2266 65.5503L38.7456 52.5812C38.2798 50.712 38.567 48.7346 39.5455 47.0752C40.524 45.4158 42.1153 44.2073 43.9764 43.7102C45.8376 43.2131 47.8196 43.4673 49.4951 44.4178C51.1707 45.3684 52.4056 46.9393 52.9338 48.7919L60.2041 75.9491L74.0103 83.9097L70.5441 70.9406C70.0782 69.0714 70.3655 67.094 71.3439 65.4346C72.3224 63.7752 73.9137 62.5667 75.7749 62.0696C77.636 61.5725 79.618 61.8267 81.2935 62.7772C82.9691 63.7278 84.204 65.2987 84.7322 67.1513L92.0025 94.3084L110.156 104.781V83.8216L90.2841 63.9494C88.9051 62.5724 88.1296 60.704 88.1283 58.7552C88.1269 56.8064 88.8997 54.9369 90.2767 53.558C91.6537 52.179 93.5221 51.4035 95.4709 51.4022C97.4197 51.4008 99.2892 52.1736 100.668 53.5506L110.156 63.0534V47.1028L90.2841 27.2306C89.6013 26.5488 89.0595 25.7392 88.6896 24.8479C88.3197 23.9567 88.1289 23.0014 88.1283 22.0364C88.1276 21.0715 88.317 20.1159 88.6856 19.2242C89.0542 18.3324 89.5949 17.522 90.2767 16.8392C90.9585 16.1564 91.7682 15.6146 92.6594 15.2447C93.5506 14.8748 94.506 14.6841 95.4709 14.6834C96.4358 14.6827 97.3914 14.8721 98.2832 15.2407C99.1749 15.6094 99.9853 16.15 100.668 16.8319L110.156 26.3347V7.34375C110.156 5.39607 110.93 3.52815 112.307 2.15093C113.684 0.773714 115.552 0 117.5 0C119.448 0 121.316 0.773714 122.693 2.15093C124.07 3.52815 124.844 5.39607 124.844 7.34375V26.3347L134.347 16.8319C135.726 15.4549 137.595 14.682 139.544 14.6834C141.493 14.6848 143.361 15.4603 144.738 16.8392C146.115 18.2182 146.888 20.0877 146.886 22.0364C146.885 23.9852 146.11 25.8536 144.731 27.2306L124.844 47.1028V63.0534L134.347 53.5506C135.726 52.1736 137.595 51.4008 139.544 51.4022C141.493 51.4035 143.361 52.179 144.738 53.558C146.115 54.9369 146.888 56.8064 146.886 58.7552C146.885 60.704 146.11 62.5724 144.731 63.9494L124.844 83.8216V104.781L142.998 94.3084L150.268 67.1366C150.519 66.205 150.95 65.3319 151.539 64.5671C152.127 63.8024 152.86 63.161 153.696 62.6795C154.532 62.1981 155.454 61.886 156.411 61.7612C157.368 61.6363 158.34 61.7011 159.271 61.9519C160.203 62.2026 161.076 62.6344 161.841 63.2226C162.605 63.8107 163.247 64.5438 163.728 65.3798C164.21 66.2159 164.522 67.1385 164.647 68.0952C164.771 69.0518 164.707 70.0237 164.456 70.9553L160.99 83.9097L174.796 75.9491L182.066 48.7772C182.573 46.8957 183.806 45.2925 185.494 44.3202C187.183 43.3479 189.188 43.0861 191.07 43.5925C192.951 44.0989 194.554 45.332 195.527 47.0204C196.499 48.7089 196.761 50.7145 196.254 52.5959L192.788 65.5503L209.238 56.0622C210.924 55.1037 212.92 54.8509 214.792 55.359C216.663 55.8671 218.258 57.0949 219.228 58.7743C220.197 60.4537 220.463 62.4485 219.968 64.3233C219.472 66.1981 218.255 67.8008 216.582 68.7816L200.132 78.2697L213.101 81.7506C214.982 82.257 216.586 83.4901 217.558 85.1786C218.53 86.867 218.792 88.8726 218.286 90.7541C217.779 92.6355 216.546 94.2388 214.858 95.2111C213.169 96.1834 211.164 96.4451 209.282 95.9388L182.14 88.6684L168.333 96.6291L181.302 100.11C183.184 100.616 184.787 101.849 185.76 103.538C186.732 105.226 186.994 107.232 186.487 109.113C185.981 110.995 184.748 112.598 183.059 113.57C181.371 114.543 179.365 114.805 177.484 114.298L150.341 107.028L132.188 117.5L150.341 127.972L177.498 120.702C179.38 120.197 181.385 120.461 183.072 121.435C184.759 122.408 185.99 124.012 186.495 125.894C186.999 127.775 186.735 129.78 185.762 131.467C184.788 133.154 183.184 134.386 181.302 134.89L168.333 138.371L182.14 146.332L209.297 139.061C211.178 138.557 213.183 138.82 214.87 139.794C216.557 140.768 217.789 142.372 218.293 144.253C218.797 146.135 218.534 148.14 217.56 149.827C216.586 151.514 214.982 152.745 213.101 153.249L200.132 156.73L216.582 166.218C218.255 167.199 219.472 168.802 219.968 170.677C220.463 172.552 220.197 174.546 219.228 176.226C218.258 177.905 216.663 179.133 214.792 179.641C212.92 180.149 210.924 179.896 209.238 178.938L192.788 169.45L196.254 182.419C196.522 183.356 196.6 184.337 196.484 185.305C196.368 186.273 196.06 187.208 195.579 188.056C195.098 188.904 194.454 189.647 193.682 190.243C192.911 190.839 192.029 191.276 191.087 191.527C190.145 191.779 189.163 191.84 188.197 191.708C187.231 191.576 186.302 191.253 185.462 190.758C184.622 190.263 183.89 189.606 183.307 188.825C182.724 188.043 182.302 187.154 182.066 186.208L174.796 159.051L160.99 151.09L164.456 164.059C164.922 165.929 164.635 167.906 163.656 169.565C162.678 171.225 161.086 172.433 159.225 172.93C157.364 173.427 155.382 173.173 153.706 172.223C152.031 171.272 150.796 169.701 150.268 167.849L142.998 140.706L124.844 130.219V151.178L144.731 171.051C146.11 172.428 146.885 174.296 146.886 176.245C146.888 178.194 146.115 180.063 144.738 181.442C143.361 182.821 141.493 183.596 139.544 183.598C137.595 183.599 135.726 182.826 134.347 181.449L124.844 171.947V187.897L144.731 207.769C146.11 209.146 146.885 211.015 146.886 212.964C146.888 214.912 146.115 216.782 144.738 218.161C143.361 219.54 141.493 220.315 139.544 220.317C137.595 220.318 135.726 219.545 134.347 218.168L124.844 208.665V227.656C124.844 229.604 124.07 231.472 122.693 232.849C121.316 234.226 119.448 235 117.5 235V235Z" fill="white"/>
</svg>
