<svg width="125" height="125" viewBox="0 0 125 125" fill="none" xmlns="http://www.w3.org/2000/svg">
<path d="M90.125 109.453C96.3009 103.294 101.199 95.9757 104.537 87.9179C107.876 79.8601 109.589 71.222 109.578 62.5C109.589 53.778 107.876 45.1399 104.537 37.0821C101.199 29.0243 96.3009 21.7057 90.125 15.5469L84.5938 21.0703C90.0431 26.5046 94.3648 32.9623 97.3104 40.0722C100.256 47.1821 101.767 54.8041 101.758 62.5C101.758 78.6797 95.1953 93.3281 84.5938 103.93L90.125 109.453V109.453Z" fill="white"/>
<path d="M79.0703 98.4062C83.7928 93.6962 87.538 88.0994 90.0908 81.9374C92.6435 75.7755 93.9534 69.1698 93.9453 62.5C93.9534 55.8302 92.6435 49.2245 90.0908 43.0626C87.538 36.9006 83.7928 31.3038 79.0703 26.5938L73.5469 32.1172C77.5428 36.1027 80.7118 40.8386 82.8717 46.0527C85.0316 51.2667 86.1399 56.8563 86.1328 62.5C86.1419 68.1445 85.0354 73.7352 82.8768 78.9506C80.7182 84.1661 77.5502 88.9035 73.5547 92.8906L79.0703 98.4062Z" fill="white"/>
<path d="M78.3203 62.5C78.3263 67.1177 77.4197 71.691 75.6527 75.9572C73.8856 80.2234 71.2928 84.0984 68.0234 87.3594L62.5 81.8359C65.0429 79.2995 67.0594 76.2854 68.4336 72.9671C69.8079 69.6488 70.5128 66.0916 70.5078 62.5C70.5078 54.9531 67.4453 48.1172 62.5 43.1641L68.0234 37.6406C71.2928 40.9016 73.8856 44.7766 75.6527 49.0428C77.4197 53.309 78.3263 57.8823 78.3203 62.5V62.5ZM54.6875 31.25C54.6865 30.515 54.478 29.7951 54.0862 29.1732C53.6944 28.5513 53.135 28.0526 52.4725 27.7344C51.8099 27.4162 51.071 27.2913 50.3406 27.3742C49.6103 27.4572 48.9181 27.7445 48.3438 28.2031L29.8828 42.9687H11.7188C10.6827 42.9687 9.68918 43.3803 8.95661 44.1129C8.22405 44.8454 7.8125 45.839 7.8125 46.875V78.125C7.8125 79.161 8.22405 80.1546 8.95661 80.8871C9.68918 81.6197 10.6827 82.0312 11.7188 82.0312H29.8828L48.3438 96.7969C48.9181 97.2555 49.6103 97.5428 50.3406 97.6257C51.071 97.7087 51.8099 97.5838 52.4725 97.2656C53.135 96.9474 53.6944 96.4486 54.0862 95.8268C54.478 95.2049 54.6865 94.485 54.6875 93.75V31.25ZM33.6875 49.9219L46.875 39.375V85.625L33.6875 75.0781C32.996 74.5234 32.1365 74.2203 31.25 74.2187H15.625V50.7812H31.25C32.1365 50.7797 32.996 50.4766 33.6875 49.9219V49.9219Z" fill="white"/>
</svg>
