<svg width="125" height="125" viewBox="0 0 125 125" fill="none" xmlns="http://www.w3.org/2000/svg">
<path d="M52.4766 27.7344C53.1384 28.0532 53.6969 28.5522 54.088 29.174C54.479 29.7959 54.6868 30.5154 54.6875 31.25V93.75C54.6865 94.485 54.478 95.2049 54.0862 95.8268C53.6944 96.4487 53.135 96.9474 52.4725 97.2656C51.8099 97.5838 51.071 97.7087 50.3406 97.6258C49.6103 97.5428 48.9181 97.2555 48.3438 96.7969L29.8828 82.0313H11.7188C10.6827 82.0313 9.68918 81.6197 8.95661 80.8871C8.22405 80.1546 7.8125 79.161 7.8125 78.125V46.875C7.8125 45.839 8.22405 44.8454 8.95661 44.1129C9.68918 43.3803 10.6827 42.9688 11.7188 42.9688H29.8828L48.3438 28.2031C48.9185 27.7437 49.6114 27.4559 50.3426 27.373C51.0737 27.29 51.8135 27.4153 52.4766 27.7344V27.7344ZM46.875 39.375L33.6875 49.9219C32.996 50.4766 32.1365 50.7797 31.25 50.7813H15.625V74.2188H31.25C32.1365 74.2203 32.996 74.5234 33.6875 75.0781L46.875 85.625V39.375ZM108.234 44.1094C108.598 44.4722 108.887 44.9033 109.084 45.3779C109.281 45.8524 109.382 46.3612 109.382 46.875C109.382 47.3888 109.281 47.8976 109.084 48.3721C108.887 48.8467 108.598 49.2778 108.234 49.6406L95.3672 62.5L108.234 75.3594C108.968 76.0929 109.38 77.0877 109.38 78.125C109.38 79.1623 108.968 80.1571 108.234 80.8906C107.501 81.6241 106.506 82.0362 105.469 82.0362C104.431 82.0362 103.437 81.6241 102.703 80.8906L89.8438 68.0234L76.9844 80.8906C76.2509 81.6241 75.2561 82.0362 74.2188 82.0362C73.1814 82.0362 72.1866 81.6241 71.4531 80.8906C70.7196 80.1571 70.3076 79.1623 70.3076 78.125C70.3076 77.0877 70.7196 76.0929 71.4531 75.3594L84.3203 62.5L71.4531 49.6406C71.0899 49.2774 70.8018 48.8463 70.6053 48.3717C70.4087 47.8972 70.3076 47.3886 70.3076 46.875C70.3076 46.3614 70.4087 45.8528 70.6053 45.3783C70.8018 44.9037 71.0899 44.4726 71.4531 44.1094C72.1866 43.3759 73.1814 42.9638 74.2188 42.9638C74.7324 42.9638 75.241 43.065 75.7155 43.2615C76.19 43.4581 76.6212 43.7462 76.9844 44.1094L89.8438 56.9766L102.703 44.1094C103.066 43.7456 103.497 43.457 103.972 43.2601C104.446 43.0631 104.955 42.9618 105.469 42.9618C105.983 42.9618 106.491 43.0631 106.966 43.2601C107.44 43.457 107.872 43.7456 108.234 44.1094V44.1094Z" fill="white"/>
</svg>
