<svg width="125" height="125" viewBox="0 0 125 125" fill="none" xmlns="http://www.w3.org/2000/svg">
<g clip-path="url(#clip0_3_2)">
<path d="M62.5 23.4375C63.536 23.4375 64.5296 23.8491 65.2621 24.5816C65.9947 25.3142 66.4062 26.3077 66.4062 27.3438V42.9688C66.4062 44.0048 65.9947 44.9983 65.2621 45.7309C64.5296 46.4634 63.536 46.875 62.5 46.875C61.464 46.875 60.4704 46.4634 59.7379 45.7309C59.0053 44.9983 58.5938 44.0048 58.5938 42.9688V27.3438C58.5938 26.3077 59.0053 25.3142 59.7379 24.5816C60.4704 23.8491 61.464 23.4375 62.5 23.4375V23.4375ZM93.75 85.9375C93.75 94.2255 90.4576 102.174 84.5971 108.035C78.7366 113.895 70.788 117.187 62.5 117.188C54.212 117.187 46.2634 113.895 40.4029 108.035C34.5424 102.174 31.25 94.2255 31.25 85.9375V39.0625C31.25 30.7745 34.5424 22.8259 40.4029 16.9654C46.2634 11.1049 54.212 7.8125 62.5 7.8125C70.788 7.8125 78.7366 11.1049 84.5971 16.9654C90.4576 22.8259 93.75 30.7745 93.75 39.0625V85.9375ZM62.5 0C52.14 0 42.2043 4.1155 34.8786 11.4411C27.553 18.7668 23.4375 28.7025 23.4375 39.0625V85.9375C23.4375 96.2975 27.553 106.233 34.8786 113.559C42.2043 120.884 52.14 125 62.5 125C72.86 125 82.7957 120.884 90.1214 113.559C97.447 106.233 101.562 96.2975 101.562 85.9375V39.0625C101.562 28.7025 97.447 18.7668 90.1214 11.4411C82.7957 4.1155 72.86 0 62.5 0V0Z" fill="white"/>
</g>
<defs>
<clipPath id="clip0_3_2">
<rect width="125" height="125" fill="white"/>
</clipPath>
</defs>
</svg>
